mtllib arm0_link_sh1_visuals_mesh_0.mtl
v -0.03021395020186901 -0.03793495148420334 0.006358981132507324
v -0.03589797019958496 -0.03656797856092453 -0.0048399558290839195
v -0.029535939916968346 -0.03793298825621605 -0.009028971195220947
v -0.013502949848771095 -0.0387449786067009 -0.0009439999121241271
v -0.016505949199199677 -0.03790295124053955 -0.026028990745544434
v 0.006512999068945646 -0.03875695914030075 -0.01157999038696289
v -0.033934950828552246 -0.03655695170164108 0.012825960293412209
v -0.02584296092391014 -0.03793400153517723 0.016708970069885254
v -0.027979960665106773 -0.03658396005630493 0.02283494919538498
v 0.021710989996790886 -0.03655397146940231 0.028880950063467026
v 0.02065395936369896 -0.037929948419332504 0.023135000839829445
v 0.02797197923064232 -0.03659795969724655 0.022825000807642937
v -0.007634996902197599 -0.037937991321086884 0.029862990602850914
v -0.004296957980841398 -0.03873097151517868 0.011637980118393898
v 0.007634996902197599 -0.037937991321086884 0.029862990602850914
v -0.003327965037897229 -0.03657393902540207 0.03613996133208275
v -0.007634996902197599 -0.037937991321086884 0.029862990602850914
v 0.007634996902197599 -0.037937991321086884 0.029862990602850914
v 0.009553967975080013 -0.03873198851943016 0.008454977534711361
v -0.013502949848771095 -0.0387449786067009 -0.0009439999121241271
v 0.006512999068945646 -0.03875695914030075 -0.01157999038696289
v 0.02797197923064232 -0.03659795969724655 0.022825000807642937
v 0.029775969684123993 -0.03794097155332565 0.008866964839398861
v 0.03263700008392334 -0.03655999153852463 0.015486950054764748
v 0.03279399126768112 -0.03654795140028 -0.015531949698925018
v 0.03459595888853073 -0.03568499907851219 -0.01311999000608921
v 0.03589797019958496 -0.03656797856092453 -0.004840970039367676
v 0.029775969684123993 -0.03794097155332565 0.008866964839398861
v 0.029949959367513657 -0.037929948419332504 -0.006835997104644775
v 0.03589797019958496 -0.03656797856092453 -0.004840970039367676
v 0.03541195020079613 -0.031069990247488022 -0.010215990245342255
v 0.014181969687342644 -0.031141990795731544 0.03408699855208397
v 0.019910989329218864 -0.03115396946668625 0.03111696057021618
v 0.02797197923064232 0.03659795969724655 -0.022825000807642937
v 0.029791949316859245 0.03793995827436447 -0.008829951286315918
v 0.03393197059631348 0.03655295819044113 -0.012842950411140919
v 0.03541195020079613 -0.031069990247488022 -0.010215990245342255
v 0.03329097852110863 -0.03111100010573864 -0.015798980370163918
v 0.026690000668168068 -0.0311309602111578 -0.025443969294428825
v 0.03541195020079613 -0.031069990247488022 -0.010215990245342255
v 0.005909978877753019 -0.03111398033797741 -0.03634297102689743
v -0.00039599998854100704 -0.031151950359344482 -0.03696094825863838
v 0.03541195020079613 -0.031069990247488022 -0.010215990245342255
v -0.036017950624227524 -0.031117970123887062 0.0077439541928470135
v -0.03438793867826462 -0.031114989891648293 0.013223939575254917
v -0.03263700008392334 0.03655999153852463 -0.015486950054764748
v -0.029781989753246307 0.03793995827436447 -0.008860944770276546
v -0.027979960665106773 0.03658396005630493 -0.02283494919538498
v -0.021709969267249107 -0.03655397146940231 0.028880950063467026
v -0.027979960665106773 -0.03658396005630493 0.02283494919538498
v -0.018632939085364342 -0.037927981466054916 0.024574989452958107
v 0.03541195020079613 -0.031069990247488022 -0.010215990245342255
v -0.033035989850759506 -0.031101999804377556 -0.016357000917196274
v -0.03541797026991844 -0.031117970123887062 -0.01017898041754961
v 0.03541195020079613 -0.031069990247488022 -0.010215990245342255
v 0.03441900014877319 -0.031131979078054428 0.013238959945738316
v 0.03606795892119408 -0.03111295960843563 0.007489978801459074
v 0.03541195020079613 -0.031069990247488022 -0.010215990245342255
v -0.008153975009918213 -0.031134959310293198 0.035991959273815155
v 0.008600950241088867 -0.031106939539313316 0.03583097085356712
v 0.03541195020079613 -0.031069990247488022 -0.010215990245342255
v 0.019910989329218864 -0.03115396946668625 0.03111696057021618
v 0.02852593921124935 -0.03110997937619686 0.023299990221858025
v 0.021710989996790886 0.03655397146940231 -0.028880950063467026
v 0.02065395936369896 0.037929948419332504 -0.023135000839829445
v 0.02797197923064232 0.03659795969724655 -0.022825000807642937
v 0.03541195020079613 -0.031069990247488022 -0.010215990245342255
v -0.02197498083114624 -0.03111696057021618 -0.02959299087524414
v -0.033035989850759506 -0.031101999804377556 -0.016357000917196274
v 0.03541195020079613 -0.031069990247488022 -0.010215990245342255
v 0.017214950174093246 -0.0311309602111578 -0.03260694816708565
v 0.011609969660639763 -0.03111295960843563 -0.03499995917081833
v 0.03541195020079613 -0.031069990247488022 -0.010215990245342255
v -0.03541797026991844 -0.031117970123887062 -0.01017898041754961
v -0.03691595047712326 -0.03115694969892502 0.0018439879640936852
v 0.03541195020079613 -0.031069990247488022 -0.010215990245342255
v -0.01145297009497881 -0.031099969521164894 -0.03504794090986252
v -0.02197498083114624 -0.03111696057021618 -0.02959299087524414
v -0.021709969267249107 0.03655397146940231 -0.028880950063467026
v -0.027979960665106773 0.03658396005630493 -0.02283494919538498
v -0.022299999371170998 0.0379289910197258 -0.02133296988904476
v -0.029781989753246307 0.03793995827436447 -0.008860944770276546
v -0.03589797019958496 0.03656797856092453 0.0048399558290839195
v -0.029535939916968346 0.03793298825621605 0.009028971195220947
v 0.03541195020079613 -0.031069990247488022 -0.010215990245342255
v -0.014186969958245754 -0.031134959310293198 0.0340690016746521
v -0.008153975009918213 -0.031134959310293198 0.035991959273815155
v 0.03541195020079613 -0.031069990247488022 -0.010215990245342255
v 0.02852593921124935 -0.03110997937619686 0.023299990221858025
v 0.03441900014877319 -0.031131979078054428 0.013238959945738316
v 0.029791949316859245 0.03793995827436447 -0.008829951286315918
v 0.029949959367513657 0.037929948419332504 0.006835997104644775
v 0.03589797019958496 0.03656797856092453 0.004840970039367676
v 0.03279399126768112 0.03654795140028 0.015531949698925018
v 0.03459595888853073 0.03568499907851219 0.01311999000608921
v 0.03589797019958496 0.03656797856092453 0.004840970039367676
v 0.03541195020079613 -0.031069990247488022 -0.010215990245342255
v 0.02224797010421753 -0.031129000708460808 -0.029398970305919647
v 0.017214950174093246 -0.0311309602111578 -0.03260694816708565
v 0.03541195020079613 -0.031069990247488022 -0.010215990245342255
v -0.028559980913996696 -0.031120000407099724 0.023280970752239227
v -0.019773000851273537 -0.03111696057021618 0.03115694969892502
v 0.03541195020079613 -0.031069990247488022 -0.010215990245342255
v 0.03606795892119408 -0.03111295960843563 0.007489978801459074
v 0.03691697120666504 -0.031167980283498764 0.001453995006158948
v 0.03328394144773483 0.03106898069381714 0.0157469492405653
v 0.026690000668168068 0.0311309602111578 0.025443969294428825
v 0.02224797010421753 0.031129000708460808 0.029398970305919647
v 0.03328394144773483 0.03106898069381714 0.0157469492405653
v 0.02224797010421753 0.031129000708460808 0.029398970305919647
v 0.017214950174093246 0.0311309602111578 0.03260694816708565
v 0.03541195020079613 -0.031069990247488022 -0.010215990245342255
v -0.03691595047712326 -0.03115694969892502 0.0018439879640936852
v -0.036017950624227524 -0.031117970123887062 0.0077439541928470135
v 0.03328394144773483 0.03106898069381714 0.0157469492405653
v 0.017214950174093246 0.0311309602111578 0.03260694816708565
v 0.011609969660639763 0.03111295960843563 0.03499995917081833
v 0.03328394144773483 0.03106898069381714 0.0157469492405653
v 0.006045997142791748 0.031114989891648293 0.03631895035505295
v 0.0003929999948013574 0.031149979680776596 0.03695797175168991
v 0.03328394144773483 0.03106898069381714 0.0157469492405653
v 0.0003929999948013574 0.031149979680776596 0.03695797175168991
v -0.005900979042053223 0.031129950657486916 0.03636597841978073
v 0.03328394144773483 0.03106898069381714 0.0157469492405653
v -0.01145297009497881 0.031099969521164894 0.03504794090986252
v -0.02197498083114624 0.03111696057021618 0.02959299087524414
v 0.03328394144773483 0.03106898069381714 0.0157469492405653
v -0.02197498083114624 0.03111696057021618 0.02959299087524414
v -0.033035989850759506 0.031101999804377556 0.016357000917196274
v 0.03328394144773483 0.03106898069381714 0.0157469492405653
v -0.033035989850759506 0.031101999804377556 0.016357000917196274
v -0.03541797026991844 0.031117970123887062 0.01017898041754961
v 0.03328394144773483 0.03106898069381714 0.0157469492405653
v -0.03541797026991844 0.031117970123887062 0.01017898041754961
v -0.03690396994352341 0.0311429500579834 -0.00142496800981462
v 0.03328394144773483 0.03106898069381714 0.0157469492405653
v -0.03690396994352341 0.0311429500579834 -0.00142496800981462
v -0.03606497868895531 0.031118979677557945 -0.0075369467958807945
v 0.03328394144773483 0.03106898069381714 0.0157469492405653
v -0.03606497868895531 0.031118979677557945 -0.0075369467958807945
v -0.03438793867826462 0.031114989891648293 -0.013223939575254917
v 0.03328394144773483 0.03106898069381714 0.0157469492405653
v -0.03438793867826462 0.031114989891648293 -0.013223939575254917
v -0.028559980913996696 0.031120000407099724 -0.023280970752239227
v 0.03328394144773483 0.03106898069381714 0.0157469492405653
v -0.028559980913996696 0.031120000407099724 -0.023280970752239227
v -0.020247990265488625 0.03113299049437046 -0.030873000621795654
v 0.03328394144773483 0.03106898069381714 0.0157469492405653
v -0.014612969942390919 0.031149979680776596 -0.03390597924590111
v -0.008601962588727474 0.031151950359344482 -0.03592199087142944
v 0.03328394144773483 0.03106898069381714 0.0157469492405653
v -0.008601962588727474 0.031151950359344482 -0.03592199087142944
v 0.008600950241088867 0.031106939539313316 -0.03583097085356712
v 0.03328394144773483 0.03106898069381714 0.0157469492405653
v 0.008600950241088867 0.031106939539313316 -0.03583097085356712
v 0.014181969687342644 0.031141990795731544 -0.03408699855208397
v 0.03328394144773483 0.03106898069381714 0.0157469492405653
v 0.014181969687342644 0.031141990795731544 -0.03408699855208397
v 0.019910989329218864 0.03115396946668625 -0.03111696057021618
v 0.03328394144773483 0.03106898069381714 0.0157469492405653
v 0.019910989329218864 0.03115396946668625 -0.03111696057021618
v 0.02852593921124935 0.03110997937619686 -0.023299990221858025
v 0.03328394144773483 0.03106898069381714 0.0157469492405653
v 0.02852593921124935 0.03110997937619686 -0.023299990221858025
v 0.03441900014877319 0.031131979078054428 -0.013238959945738316
v 0.03328394144773483 0.03106898069381714 0.0157469492405653
v 0.03441900014877319 0.031131979078054428 -0.013238959945738316
v 0.03606795892119408 0.03111295960843563 -0.007489978801459074
v 0.03328394144773483 0.03106898069381714 0.0157469492405653
v 0.03606795892119408 0.03111295960843563 -0.007489978801459074
v 0.03690396994352341 0.0311429500579834 -0.0014549490297213197
v 0.03328394144773483 0.03106898069381714 0.0157469492405653
v 0.03690396994352341 0.0311429500579834 -0.0014549490297213197
v 0.03548096865415573 0.031151950359344482 0.010098990052938461
v -0.013450980186462402 0.0387449786067009 0.000952000031247735
v -0.016505949199199677 0.03790295124053955 0.026028990745544434
v 0.006492971908301115 0.038757968693971634 0.011544999666512012
v 0.03541195020079613 -0.031069990247488022 -0.010215990245342255
v 0.008600950241088867 -0.031106939539313316 0.03583097085356712
v 0.014181969687342644 -0.031141990795731544 0.03408699855208397
v 0.003327965037897229 0.03657393902540207 -0.03613996133208275
v -0.01056998036801815 0.03794699162244797 -0.029202990233898163
v 0.007634996902197599 0.037937991321086884 -0.029862990602850914
v -0.01056998036801815 0.03794699162244797 -0.029202990233898163
v -0.004296957980841398 0.03873097151517868 -0.011637980118393898
v 0.007634996902197599 0.037937991321086884 -0.029862990602850914
v 0.00955498218536377 0.03873198851943016 -0.008455990813672543
v -0.013450980186462402 0.0387449786067009 0.000952000031247735
v 0.006492971908301115 0.038757968693971634 0.011544999666512012
v 0.03541195020079613 -0.031069990247488022 -0.010215990245342255
v -0.03438793867826462 -0.031114989891648293 0.013223939575254917
v -0.028559980913996696 -0.031120000407099724 0.023280970752239227
v 0.03541195020079613 -0.031069990247488022 -0.010215990245342255
v 0.026690000668168068 -0.0311309602111578 -0.025443969294428825
v 0.02224797010421753 -0.031129000708460808 -0.029398970305919647
v 0.03541195020079613 -0.031069990247488022 -0.010215990245342255
v -0.00039599998854100704 -0.031151950359344482 -0.03696094825863838
v -0.006071983836591244 -0.0311309602111578 -0.03633600100874901
v 0.006512999068945646 -0.03875695914030075 -0.01157999038696289
v -0.016505949199199677 -0.03790295124053955 -0.026028990745544434
v 0.0 -0.037956949323415756 -0.030853979289531708
v 0.0 -0.037956949323415756 -0.030853979289531708
v 0.016738949343562126 -0.03790700063109398 -0.02584296092391014
v 0.006512999068945646 -0.03875695914030075 -0.01157999038696289
v 0.009553967975080013 -0.03873198851943016 0.008454977534711361
v 0.029949959367513657 -0.037929948419332504 -0.006835997104644775
v 0.029775969684123993 -0.03794097155332565 0.008866964839398861
v -0.029535939916968346 -0.03793298825621605 -0.009028971195220947
v -0.023817000910639763 -0.037929948419332504 -0.019567960873246193
v -0.013502949848771095 -0.0387449786067009 -0.0009439999121241271
v -0.029535939916968346 -0.03793298825621605 -0.009028971195220947
v -0.03589797019958496 -0.03656797856092453 -0.0048399558290839195
v -0.032937999814748764 -0.03657196834683418 -0.015058989636600018
v -0.033934950828552246 -0.03655695170164108 0.012825960293412209
v -0.03586196154356003 -0.03655999153852463 0.004354000091552734
v -0.03021395020186901 -0.03793495148420334 0.006358981132507324
v -0.013450980186462402 0.0387449786067009 0.000952000031247735
v -0.022299999371170998 0.0379289910197258 -0.02133296988904476
v -0.029781989753246307 0.03793995827436447 -0.008860944770276546
v 0.0 0.037956949323415756 0.030853979289531708
v 0.016738949343562126 0.03790700063109398 0.02584296092391014
v 0.006492971908301115 0.038757968693971634 0.011544999666512012
v 0.006492971908301115 0.038757968693971634 0.011544999666512012
v -0.016505949199199677 0.03790295124053955 0.026028990745544434
v 0.0 0.037956949323415756 0.030853979289531708
v -0.029535939916968346 0.03793298825621605 0.009028971195220947
v -0.03589797019958496 0.03656797856092453 0.0048399558290839195
v -0.032937999814748764 0.03657196834683418 0.015058989636600018
v -0.029535939916968346 0.03793298825621605 0.009028971195220947
v -0.023817000910639763 0.037929948419332504 0.019567960873246193
v -0.013450980186462402 0.0387449786067009 0.000952000031247735
v 0.009553967975080013 -0.03873198851943016 0.008454977534711361
v 0.006512999068945646 -0.03875695914030075 -0.01157999038696289
v 0.029949959367513657 -0.037929948419332504 -0.006835997104644775
v 0.03606795892119408 0.03111295960843563 -0.007489978801459074
v 0.03441900014877319 0.031131979078054428 -0.013238959945738316
v 0.03553897142410278 0.03568499907851219 -0.010293959639966488
v -0.0192829892039299 0.03656797856092453 0.030536940321326256
v -0.026686960831284523 0.036558978259563446 0.024550970643758774
v -0.024535950273275375 0.03568499907851219 0.027695000171661377
v 0.026690000668168068 0.0311309602111578 0.025443969294428825
v 0.03037095069885254 0.031213989481329918 0.020963959395885468
v 0.028659990057349205 0.03568499907851219 0.023399939760565758
v 0.003327965037897229 0.03657393902540207 -0.03613996133208275
v 0.01417796965688467 0.0365789495408535 -0.033245980739593506
v 0.011716959998011589 0.03568499907851219 -0.035095978528261185
v -0.017124950885772705 -0.03570996969938278 0.03277498111128807
v -0.021709969267249107 -0.03655397146940231 0.028880950063467026
v -0.01417796965688467 -0.0365789495408535 0.033245980739593506
v -0.017136989161372185 0.0311849694699049 0.032650940120220184
v -0.014503000304102898 0.03568499907851219 0.0340389609336853
v -0.019743969663977623 0.035696979612112045 0.03127700090408325
v -0.0192829892039299 -0.03656797856092453 -0.030536940321326256
v -0.026686960831284523 -0.036558978259563446 -0.024550970643758774
v -0.024535950273275375 -0.03568499907851219 -0.027695000171661377
v -0.03541797026991844 0.031117970123887062 0.01017898041754961
v -0.03459595888853073 0.03568499907851219 0.01311999000608921
v -0.036334991455078125 0.03569597005844116 0.006997941993176937
v 0.02852593921124935 0.03110997937619686 -0.023299990221858025
v 0.03044998086988926 0.03568499907851219 -0.021017959341406822
v 0.0320429801940918 0.031309958547353745 -0.01849997043609619
v 0.02224797010421753 0.031129000708460808 0.029398970305919647
v 0.024535950273275375 0.03568499907851219 0.027695000171661377
v 0.028659990057349205 -0.03568499907851219 -0.023399939760565758
v 0.026690000668168068 -0.0311309602111578 -0.025443969294428825
v 0.03037095069885254 -0.031213989481329918 -0.020963959395885468
v 0.03662395104765892 0.031202970072627068 0.0044469828717410564
v 0.03690396994352341 0.0311429500579834 -0.0014549490297213197
v 0.036969948559999466 0.03568499907851219 0.0014899959787726402
v 0.03672999143600464 -0.03568499907851219 0.004459977149963379
v 0.03691697120666504 -0.031167980283498764 0.001453995006158948
v 0.03606795892119408 -0.03111295960843563 0.007489978801459074
v -0.01145297009497881 0.031099969521164894 0.03504794090986252
v -0.005900979042053223 0.031129950657486916 0.03636597841978073
v -0.008854985237121582 0.03568499907851219 0.03592497110366821
v 0.008600950241088867 0.031106939539313316 -0.03583097085356712
v 0.014181969687342644 0.031141990795731544 -0.03408699855208397
v 0.03548096865415573 0.031151950359344482 0.010098990052938461
v 0.03625195845961571 0.03568499907851219 0.007400989066809416
v 0.03459595888853073 0.03568499907851219 0.01311999000608921
v -0.017176980152726173 0.0356929786503315 -0.03276300057768822
v -0.020247990265488625 0.03113299049437046 -0.030873000621795654
v -0.022226979956030846 0.03568499907851219 -0.029578980058431625
v 0.017195990309119225 0.03568499907851219 -0.032761991024017334
v 0.019910989329218864 0.03115396946668625 -0.03111696057021618
v 0.0004980000085197389 0.031157970428466797 -0.03699498996138573
v 0.005934953223913908 0.03568499907851219 -0.03652095049619675
v 0.022226979956030846 0.03568499907851219 -0.029578980058431625
v 0.024463949725031853 0.031202970072627068 -0.027614949271082878
v 0.026683980599045753 0.03568499907851219 -0.025630950927734375
v 0.033427949994802475 0.03568499907851219 -0.015861980617046356
v 0.03672999143600464 0.03568499907851219 -0.004459977149963379
v 0.03328394144773483 0.03106898069381714 0.0157469492405653
v 0.0320429801940918 0.03568499907851219 0.01849997043609619
v 0.017214950174093246 0.0311309602111578 0.03260694816708565
v 0.019773000851273537 0.03568499907851219 0.03127294033765793
v 0.014503000304102898 0.03568499907851219 0.0340389609336853
v 0.011609969660639763 0.03111295960843563 0.03499995917081833
v 0.019773000851273537 -0.03568499907851219 -0.03127294033765793
v 0.014503000304102898 -0.03568499907851219 -0.0340389609336853
v 0.017214950174093246 -0.0311309602111578 -0.03260694816708565
v -0.011655979789793491 -0.03571099042892456 0.03508995845913887
v -0.014186969958245754 -0.031134959310293198 0.0340690016746521
v -0.01417796965688467 0.0365789495408535 -0.033245980739593506
v -0.011716959998011589 0.03568499907851219 -0.035095978528261185
v 0.024535950273275375 -0.03568499907851219 -0.027695000171661377
v 0.02224797010421753 -0.031129000708460808 -0.029398970305919647
v -0.014503000304102898 -0.03568499907851219 -0.0340389609336853
v -0.014159969985485077 -0.03655999153852463 -0.03323400020599365
v -0.019743969663977623 -0.035696979612112045 -0.03127700090408325
v -0.032937999814748764 0.03657196834683418 0.015058989636600018
v -0.0320429801940918 0.03568499907851219 0.01849997043609619
v -0.03459595888853073 -0.03568499907851219 -0.01311999000608921
v -0.032937999814748764 -0.03657196834683418 -0.015058989636600018
v -0.036334991455078125 -0.03569597005844116 -0.006997941993176937
v 0.03459595888853073 -0.03568499907851219 -0.01311999000608921
v 0.03329097852110863 -0.03111100010573864 -0.015798980370163918
v 0.03541195020079613 -0.031069990247488022 -0.010215990245342255
v 0.0004980000085197389 -0.031157970428466797 0.03699498996138573
v 0.005934953223913908 -0.03568499907851219 0.03652095049619675
v 0.008600950241088867 -0.031106939539313316 0.03583097085356712
v -0.03672999143600464 -0.03568499907851219 0.004459977149963379
v -0.03691595047712326 -0.03115694969892502 0.0018439879640936852
v -0.036969948559999466 -0.03568499907851219 -0.0014899959787726402
v -0.03541797026991844 -0.031117970123887062 -0.01017898041754961
v -0.03659098967909813 -0.031168989837169647 -0.004442988894879818
v -0.00297695305198431 -0.03568499907851219 -0.036879949271678925
v -0.006071983836591244 -0.0311309602111578 -0.03633600100874901
v -0.00039599998854100704 -0.031151950359344482 -0.03696094825863838
v 0.03556495159864426 -0.036535970866680145 0.00725895119830966
v 0.03553897142410278 -0.03568499907851219 0.010293959639966488
v -0.028438979759812355 -0.031172990798950195 -0.02367996983230114
v -0.028659990057349205 -0.03568499907851219 -0.023399939760565758
v -0.036017950624227524 -0.031117970123887062 0.0077439541928470135
v -0.03553897142410278 -0.03568499907851219 0.010293959639966488
v -0.03438793867826462 -0.031114989891648293 0.013223939575254917
v 0.036969948559999466 -0.03568499907851219 -0.0014899959787726402
v -0.03021395020186901 -0.03793495148420334 0.006358981132507324
v -0.03586196154356003 -0.03655999153852463 0.004354000091552734
v -0.03589797019958496 -0.03656797856092453 -0.0048399558290839195
v 0.011716959998011589 -0.03568499907851219 0.035095978528261185
v 0.014181969687342644 -0.031141990795731544 0.03408699855208397
v -0.003327965037897229 -0.03657393902540207 0.03613996133208275
v 0.033427949994802475 -0.03568499907851219 0.015861980617046356
v 0.03263700008392334 -0.03655999153852463 0.015486950054764748
v -0.033427949994802475 -0.03568499907851219 0.015861980617046356
v -0.03044998086988926 -0.03568499907851219 0.021017959341406822
v -0.0320429801940918 -0.031309958547353745 0.01849997043609619
v -0.028559980913996696 -0.031120000407099724 0.023280970752239227
v 0.00297695305198431 -0.03568499907851219 -0.036879949271678925
v 0.0192829892039299 -0.03656797856092453 -0.030536940321326256
v 0.016738949343562126 -0.03790700063109398 -0.02584296092391014
v 0.011904950253665447 -0.03654598817229271 -0.034233979880809784
v 0.026090970262885094 -0.036584969609975815 -0.025047950446605682
v 0.025822989642620087 -0.037929948419332504 -0.01726596988737583
v 0.002924978034570813 -0.03655999153852463 -0.03600800037384033
v 0.008854985237121582 -0.03568499907851219 -0.03592497110366821
v 0.01417796965688467 -0.0365789495408535 0.033245980739593506
v 0.02065395936369896 -0.037929948419332504 0.023135000839829445
v 0.021710989996790886 -0.03655397146940231 0.028880950063467026
v 0.0320429801940918 -0.03568499907851219 -0.01849997043609619
v 0.017195990309119225 -0.03568499907851219 0.032761991024017334
v 0.022226979956030846 -0.03568499907851219 0.029578980058431625
v -0.005717991851270199 -0.036589980125427246 -0.035654958337545395
v -0.008854985237121582 -0.03568499907851219 -0.03592497110366821
v 0.007634996902197599 -0.037937991321086884 0.029862990602850914
v 0.009553967975080013 -0.03873198851943016 0.008454977534711361
v 0.005823968909680843 -0.03656899183988571 0.03564196079969406
v 0.03044998086988926 -0.03568499907851219 0.021017959341406822
v -0.027979960665106773 -0.03658396005630493 0.02283494919538498
v -0.026683980599045753 -0.03568499907851219 0.025630950927734375
v -0.005934953223913908 -0.03568499907851219 0.03652095049619675
v -0.008153975009918213 -0.031134959310293198 0.035991959273815155
v -0.017136989161372185 -0.0311849694699049 -0.032650940120220184
v -0.02197498083114624 -0.03111696057021618 -0.02959299087524414
v -0.03021395020186901 -0.03793495148420334 0.006358981132507324
v -0.013502949848771095 -0.0387449786067009 -0.0009439999121241271
v -0.02584296092391014 -0.03793400153517723 0.016708970069885254
v 0.0 -0.03568499907851219 0.03700000047683716
v -0.016505949199199677 -0.03790295124053955 -0.026028990745544434
v 0.0 -0.037956949323415756 -0.030853979289531708
v 0.03279399126768112 -0.03654795140028 -0.015531949698925018
v 0.029949959367513657 -0.037929948419332504 -0.006835997104644775
v -0.027979960665106773 -0.03658396005630493 0.02283494919538498
v -0.018632939085364342 -0.037927981466054916 0.024574989452958107
v -0.0320429801940918 -0.03568499907851219 -0.01849997043609619
v -0.033035989850759506 -0.031101999804377556 -0.016357000917196274
v -0.022226979956030846 -0.03568499907851219 0.029578980058431625
v 0.026683980599045753 -0.03568499907851219 0.025630950927734375
v 0.024463949725031853 -0.031202970072627068 0.027614949271082878
v -0.004296957980841398 -0.03873097151517868 0.011637980118393898
v -0.007634996902197599 -0.037937991321086884 0.029862990602850914
v 0.03662395104765892 -0.031202970072627068 -0.0044469828717410564
v 0.03625195845961571 -0.03568499907851219 -0.007400989066809416
v -0.021709969267249107 0.03655397146940231 -0.028880950063467026
v -0.014159969985485077 0.03655999153852463 0.03323400020599365
v 0.005909978877753019 -0.03111398033797741 -0.03634297102689743
v 0.002924978034570813 0.03655999153852463 0.03600800037384033
v 0.008854985237121582 0.03568499907851219 0.03592497110366821
v 0.011904950253665447 0.03654598817229271 0.034233979880809784
v 0.02797197923064232 -0.03659795969724655 0.022825000807642937
v 0.02852593921124935 -0.03110997937619686 0.023299990221858025
v 0.019910989329218864 -0.03115396946668625 0.03111696057021618
v -0.023817000910639763 -0.037929948419332504 -0.019567960873246193
v -0.033934950828552246 -0.03655695170164108 0.012825960293412209
v 0.0320429801940918 -0.031309958547353745 0.01849997043609619
v 0.03441900014877319 -0.031131979078054428 0.013238959945738316
v 0.03589797019958496 -0.03656797856092453 -0.004840970039367676
v 0.029775969684123993 -0.03794097155332565 0.008866964839398861
v 0.0 0.037956949323415756 0.030853979289531708
v -0.005717991851270199 0.036589980125427246 0.035654958337545395
v -0.01145297009497881 -0.031099969521164894 -0.03504794090986252
v -0.019773000851273537 -0.03111696057021618 0.03115694969892502
v 0.011609969660639763 -0.03111295960843563 -0.03499995917081833
v 0.0192829892039299 0.03656797856092453 0.030536940321326256
v 0.016738949343562126 0.03790700063109398 0.02584296092391014
v -0.005934953223913908 0.03568499907851219 -0.03652095049619675
v 0.0 0.03568499907851219 -0.03700000047683716
v -0.005823968909680843 0.03656899183988571 -0.03564196079969406
v -0.01056998036801815 0.03794699162244797 -0.029202990233898163
v -0.033427949994802475 0.03568499907851219 -0.015861980617046356
v -0.03556495159864426 0.036535970866680145 -0.00725895119830966
v -0.03263700008392334 0.03655999153852463 -0.015486950054764748
v 0.007634996902197599 0.037937991321086884 -0.029862990602850914
v 0.03541195020079613 -0.031069990247488022 -0.010215990245342255
v 0.03279399126768112 0.03654795140028 0.015531949698925018
v 0.029949959367513657 0.037929948419332504 0.006835997104644775
v 0.025822989642620087 0.037929948419332504 0.01726596988737583
v 0.00955498218536377 0.03873198851943016 -0.008455990813672543
v 0.02065395936369896 0.037929948419332504 -0.023135000839829445
v -0.008601962588727474 0.031151950359344482 -0.03592199087142944
v -0.028438979759812355 0.031172990798950195 0.02367996983230114
v -0.033035989850759506 0.031101999804377556 0.016357000917196274
v 0.029775969684123993 -0.03794097155332565 0.008866964839398861
v -0.029781989753246307 0.03793995827436447 -0.008860944770276546
v -0.03589797019958496 0.03656797856092453 0.0048399558290839195
v 0.03586196154356003 0.03655999153852463 -0.004354000091552734
v -0.004296957980841398 0.03873097151517868 -0.011637980118393898
v -0.022299999371170998 0.0379289910197258 -0.02133296988904476
v 0.02797197923064232 0.03659795969724655 -0.022825000807642937
v -0.028659990057349205 0.03568499907851219 0.023399939760565758
v -0.03606497868895531 0.031118979677557945 -0.0075369467958807945
v -0.03672999143600464 0.03568499907851219 -0.004459977149963379
v -0.03553897142410278 0.03568499907851219 -0.010293959639966488
v -0.03044998086988926 0.03568499907851219 -0.021017959341406822
v -0.027979960665106773 0.03658396005630493 -0.02283494919538498
v -0.026683980599045753 0.03568499907851219 -0.025630950927734375
v -0.016505949199199677 0.03790295124053955 0.026028990745544434
v -0.023817000910639763 0.037929948419332504 0.019567960873246193
v -0.024479979649186134 0.03122699074447155 -0.027632949873805046
v -0.028559980913996696 0.031120000407099724 -0.023280970752239227
v 0.03393197059631348 0.03655295819044113 -0.012842950411140919
v -0.02197498083114624 0.03111696057021618 0.02959299087524414
v 0.026090970262885094 0.036584969609975815 0.025047950446605682
v -0.00297695305198431 0.03568499907851219 0.036879949271678925
v -0.03690396994352341 0.0311429500579834 -0.00142496800981462
v -0.03659098967909813 0.031168989837169647 0.004442988894879818
v -0.036969948559999466 0.03568499907851219 0.0014899959787726402
v -0.0320429801940918 0.031309958547353745 -0.01849997043609619
v -0.03438793867826462 0.031114989891648293 -0.013223939575254917
v 0.029791949316859245 0.03793995827436447 -0.008829951286315918
v 0.029791949316859245 0.03793995827436447 -0.008829951286315918
v -0.014612969942390919 0.031149979680776596 -0.03390597924590111
v -0.024479979649186134 -0.03122699074447155 0.027632949873805046
v 0.03589797019958496 0.03656797856092453 0.004840970039367676
v 0.00297695305198431 0.03568499907851219 0.036879949271678925
v 0.03541195020079613 -0.031069990247488022 -0.010215990245342255
v 0.021710989996790886 0.03655397146940231 -0.028880950063467026
v 0.03328394144773483 0.03106898069381714 0.0157469492405653
v 0.006045997142791748 0.031114989891648293 0.03631895035505295
v 0.03328394144773483 0.03106898069381714 0.0157469492405653
v 0.03328394144773483 0.03106898069381714 0.0157469492405653
v 0.0003929999948013574 0.031149979680776596 0.03695797175168991
v -0.013450980186462402 0.0387449786067009 0.000952000031247735
v 0.03541195020079613 -0.031069990247488022 -0.010215990245342255
v 0.006512999068945646 -0.03875695914030075 -0.01157999038696289
v -0.013502949848771095 -0.0387449786067009 -0.0009439999121241271
v 0.03589797019958496 -0.03656797856092453 -0.004840970039367676
v -0.029535939916968346 -0.03793298825621605 -0.009028971195220947
v 0.03589797019958496 0.03656797856092453 0.004840970039367676
v -0.027979960665106773 0.03658396005630493 -0.02283494919538498
v -0.029781989753246307 0.03793995827436447 -0.008860944770276546
v -0.022299999371170998 0.0379289910197258 -0.02133296988904476
v 0.02797197923064232 0.03659795969724655 -0.022825000807642937
v -0.013450980186462402 0.0387449786067009 0.000952000031247735
v -0.029535939916968346 -0.03793298825621605 -0.009028971195220947
v -0.033934950828552246 -0.03655695170164108 0.012825960293412209
v 0.006492971908301115 0.038757968693971634 0.011544999666512012
v -0.029535939916968346 0.03793298825621605 0.009028971195220947
v -0.029781989753246307 0.03793995827436447 -0.008860944770276546
v -0.029535939916968346 0.03793298825621605 0.009028971195220947
v -0.013450980186462402 0.0387449786067009 0.000952000031247735
v 0.02797197923064232 -0.03659795969724655 0.022825000807642937
usemtl material_black_006
f 1 2 3
f 4 5 6
f 7 8 9
f 10 11 12
f 13 14 15
f 16 17 18
f 19 20 21
f 22 23 24
f 25 26 27
f 28 29 30
f 31 32 33
f 34 35 36
f 37 38 39
f 40 41 42
f 43 44 45
f 46 47 48
f 49 50 51
f 52 53 54
f 55 56 57
f 58 59 60
f 61 62 63
f 64 65 66
f 67 68 69
f 70 71 72
f 73 74 75
f 76 77 78
f 79 80 81
f 82 83 84
f 85 86 87
f 88 89 90
f 91 92 93
f 94 95 96
f 97 98 99
f 100 101 102
f 103 104 105
f 106 107 108
f 109 110 111
f 112 113 114
f 115 116 117
f 118 119 120
f 121 122 123
f 124 125 126
f 127 128 129
f 130 131 132
f 133 134 135
f 136 137 138
f 139 140 141
f 142 143 144
f 145 146 147
f 148 149 150
f 151 152 153
f 154 155 156
f 157 158 159
f 160 161 162
f 163 164 165
f 166 167 168
f 169 170 171
f 172 173 174
f 175 176 177
f 178 179 180
f 181 182 183
f 184 185 186
f 187 188 189
f 190 191 192
f 193 194 195
f 196 197 198
f 199 200 201
f 202 203 204
f 205 206 207
f 208 209 210
f 211 212 213
f 214 215 216
f 217 218 219
f 220 221 222
f 223 224 225
f 226 227 228
f 229 230 231
f 232 233 234
f 235 236 237
f 238 239 240
f 241 242 243
f 244 245 246
f 247 248 249
f 250 251 252
f 253 254 255
f 256 257 258
f 259 260 261
f 262 241 263
f 264 265 266
f 267 268 269
f 270 271 272
f 273 274 275
f 276 246 277
f 278 279 280
f 281 282 283
f 277 284 285
f 276 286 287
f 277 246 284
f 285 284 288
f 289 285 288
f 259 289 290
f 291 236 261
f 235 292 268
f 278 267 279
f 293 278 280
f 242 293 294
f 295 262 296
f 297 295 296
f 298 295 297
f 246 245 284
f 299 300 301
f 247 302 303
f 304 305 281
f 306 307 265
f 308 309 310
f 239 311 312
f 313 314 315
f 316 317 318
f 319 320 321
f 322 323 324
f 255 310 253
f 323 325 326
f 327 328 329
f 330 270 331
f 332 255 333
f 334 335 336
f 330 337 270
f 338 339 340
f 341 342 321
f 249 343 302
f 330 344 345
f 346 336 335
f 346 347 348
f 347 349 348
f 327 329 350
f 351 352 353
f 352 354 355
f 340 315 314
f 356 350 357
f 358 359 360
f 315 340 324
f 361 266 317
f 362 360 363
f 327 364 365
f 366 367 359
f 368 366 358
f 369 345 344
f 347 370 371
f 322 334 323
f 299 307 306
f 351 299 306
f 353 357 300
f 351 306 354
f 302 343 372
f 302 372 373
f 374 310 375
f 324 326 315
f 376 377 378
f 343 320 379
f 380 364 381
f 382 383 355
f 306 265 264
f 255 254 333
f 368 343 366
f 379 320 319
f 384 378 385
f 332 386 387
f 371 248 388
f 363 389 390
f 299 351 353
f 300 299 353
f 365 309 308
f 264 266 361
f 380 253 309
f 391 392 385
f 353 352 381
f 356 353 381
f 378 391 385
f 271 337 393
f 320 368 341
f 309 253 310
f 393 394 318
f 320 341 321
f 395 304 281
f 395 281 283
f 373 319 321
f 367 391 377
f 257 311 258
f 396 238 252
f 251 396 252
f 350 397 357
f 398 399 400
f 389 401 369
f 389 369 402
f 266 265 317
f 403 390 402
f 361 317 316
f 339 324 340
f 254 380 404
f 405 346 335
f 369 344 406
f 402 406 407
f 316 394 408
f 409 408 330
f 410 411 398
f 369 406 402
f 313 315 325
f 365 412 328
f 308 310 374
f 388 247 413
f 362 342 341
f 342 362 403
f 403 362 363
f 403 363 390
f 389 402 390
f 406 344 407
f 331 272 407
f 394 316 318
f 307 299 301
f 300 414 301
f 302 247 249
f 247 388 248
f 314 386 254
f 353 356 357
f 358 362 341
f 341 368 358
f 381 364 356
f 415 416 400
f 240 252 238
f 243 242 294
f 417 244 418
f 261 260 291
f 400 399 297
f 419 420 244
f 421 422 423
f 244 424 245
f 425 328 412
f 426 427 428
f 424 429 430
f 417 286 431
f 432 312 433
f 331 270 272
f 367 434 359
f 418 287 286
f 263 241 243
f 241 293 242
f 399 298 297
f 435 422 436
f 259 261 236
f 437 269 292
f 438 420 439
f 259 290 260
f 270 337 271
f 290 440 260
f 312 441 239
f 442 443 444
f 356 327 350
f 445 446 447
f 239 448 449
f 450 451 447
f 311 239 449
f 260 452 291
f 453 252 240
f 450 283 282
f 415 263 454
f 314 254 404
f 451 450 282
f 415 296 263
f 417 305 419
f 274 455 275
f 296 262 263
f 305 304 419
f 456 256 457
f 285 289 259
f 443 456 458
f 452 292 237
f 289 288 290
f 447 395 283
f 305 417 431
f 250 252 453
f 459 421 445
f 453 273 250
f 460 459 451
f 448 238 396
f 257 433 312
f 432 240 441
f 360 362 358
f 443 422 444
f 360 389 363
f 273 251 250
f 460 442 444
f 445 451 459
f 452 461 437
f 393 318 271
f 357 414 300
f 420 419 304
f 433 453 432
f 395 420 304
f 375 412 374
f 429 462 430
f 313 387 386
f 375 310 255
f 398 400 410
f 463 305 431
f 400 416 410
f 436 258 311
f 388 464 371
f 243 426 454
f 264 382 354
f 240 239 441
f 405 347 346
f 279 267 269
f 268 292 269
f 423 445 421
f 437 461 465
f 280 279 465
f 278 268 267
f 235 237 292
f 398 455 466
f 467 413 303
f 344 331 407
f 412 308 374
f 275 396 251
f 394 393 337
f 297 296 400
f 296 415 400
f 468 245 430
f 416 454 428
f 422 458 436
f 284 468 288
f 448 411 410
f 469 298 470
f 282 281 463
f 471 274 273
f 244 287 418
f 455 411 275
f 405 322 339
f 372 319 373
f 472 282 463
f 336 348 349
f 398 466 399
f 258 436 458
f 236 291 237
f 468 290 288
f 349 464 413
f 470 466 473
f 455 473 466
f 458 457 258
f 386 333 254
f 429 438 474
f 392 343 249
f 387 375 332
f 431 286 276
f 287 246 276
f 287 244 246
f 421 460 444
f 248 385 249
f 349 371 464
f 475 414 397
f 294 293 280
f 327 365 328
f 352 355 476
f 332 375 255
f 330 408 337
f 394 337 408
f 366 359 358
f 366 391 367
f 330 331 344
f 346 348 336
f 347 371 349
f 352 351 354
f 409 330 345
f 369 401 345
f 322 335 334
f 315 326 325
f 477 404 380
f 324 323 326
f 343 368 320
f 382 478 383
f 476 355 383
f 343 379 372
f 332 333 386
f 371 370 248
f 365 364 309
f 309 364 380
f 314 313 386
f 429 427 462
f 350 329 397
f 247 303 413
f 339 322 324
f 254 253 380
f 376 479 377
f 249 385 392
f 263 243 454
f 417 419 244
f 421 444 422
f 426 480 427
f 481 482 483
f 417 418 286
f 432 441 312
f 294 280 426
f 454 426 428
f 279 269 465
f 306 264 354
f 399 470 298
f 437 465 269
f 424 438 429
f 430 462 484
f 442 456 443
f 485 449 448
f 356 364 327
f 284 245 468
f 239 238 448
f 260 440 452
f 474 438 439
f 450 447 283
f 274 473 455
f 424 430 245
f 314 404 486
f 452 437 292
f 452 237 291
f 447 446 395
f 354 382 355
f 257 256 433
f 432 453 240
f 376 378 487
f 360 401 389
f 273 275 251
f 395 439 420
f 445 447 451
f 488 428 427
f 357 397 414
f 313 325 387
f 311 257 312
f 423 422 435
f 463 281 305
f 388 413 464
f 243 294 426
f 311 449 489
f 264 361 382
f 405 370 347
f 423 446 445
f 398 411 455
f 396 411 448
f 412 365 308
f 275 411 396
f 416 415 454
f 422 443 458
f 405 335 322
f 372 379 319
f 490 491 492
f 302 373 303
f 468 440 290
f 258 457 256
f 470 399 466
f 361 316 382
f 458 456 457
f 421 459 460
f 359 434 493
f 416 428 488
f 378 377 391
f 429 488 427
